# xmcd CD database file generated by OrangeCD 6.4
#
# Track frame offsets:
#	150
#	25902
#	40356
#	66037
#	84171
#	112637
#	130841
#	149404
#	165224
#	185560
#	203678
#	219958
#	241462
#	263505
#	291787
#	309049
#	335838
#
# Disc length: 4672 seconds
#
# Revision: 2
# Processed by: cddbd v1.5.2PL0 Copyright (c) Steve Scherf et al.
# Submitted via: OrangeCD 6.4
#
DISCID=e2123e11
DTITLE=Various Artist - Antologia polskiego bluesa cz.2
DYEAR=2009
DGENRE=Blues
TTITLE0=Lester Kidson Band - Green Onions
TTITLE1=D¿em - Pozna³em go po czarnym kapeluszu
TTITLE2=El¿bieta Mielczarek - Hotel Grand
TTITLE3=Kasa Chorych - MPO Blues
TTITLE4=Coolish Blues Session - Bukka White
TTITLE5=Martyna Jakubowicz - Chcê ci daæ trochê wiary w cud (Ko³ysanka dla Misi
TTITLE5=aków)
TTITLE6=Mietek Blues Band - Blues dla Zygi
TTITLE7=Trio Con Brio - Blues dla zmartwionych
TTITLE8=Boogie Chilli - Ramblin' On My Mind
TTITLE9=Nocna Zmiana Bluesa i Jan B³êdowski - Nie bêdzie mnie
TTITLE10=Magda Piskorczyk - Never Make Tour Move To Soon
TTITLE11=Bracia i Siostry - Czasami
TTITLE12=Wielka £ódz - Walk On
TTITLE13=Los Agentos - Matchbox
TTITLE14=Krzak - Czakus
TTITLE15=Jan "Kyks" Skrzek - Sztajger
TTITLE16=Nalepa - Breakout -  - Oni zaraz przyjd¹ tu
EXTD=
EXTT0=
EXTT1=
EXTT2=
EXTT3=
EXTT4=
EXTT5=
EXTT6=
EXTT7=
EXTT8=
EXTT9=
EXTT10=
EXTT11=
EXTT12=
EXTT13=
EXTT14=
EXTT15=
EXTT16=
PLAYORDER=
